<?xml version="1.0" encoding="UTF-8"?>
<!DOCTYPE svg PUBLIC "-//W3C//DTD SVG 1.1//EN" "http://www.w3.org/Graphics/SVG/1.1/DTD/svg11.dtd">
<!-- Creator: CorelDRAW X7 -->
<svg xmlns="http://www.w3.org/2000/svg" xml:space="preserve" width="1.09456in" height="0.560752in" version="1.1" style="shape-rendering:geometricPrecision; text-rendering:geometricPrecision; image-rendering:optimizeQuality; fill-rule:evenodd; clip-rule:evenodd"
viewBox="0 0 453 232"
 xmlns:xlink="http://www.w3.org/1999/xlink">
 <defs>
  <style type="text/css">
   <![CDATA[
    .fil1 {fill:#A9ABAE}
    .fil0 {fill:#00AFEF}
    .fil3 {fill:#86B817}
    .fil2 {fill:#A9ABAE;fill-rule:nonzero}
   ]]>
  </style>
 </defs>
 <g id="Layer_x0020_1">
  <metadata id="CorelCorpID_0Corel-Layer"/>
  <g id="_868921680">
   <path class="fil0" d="M150 87c-3,-6 -6,-14 -9,-21 -3,-7 -6,-13 -9,-20 -10,-1 -23,0 -34,0 0,1 2,5 3,7 12,29 24,57 37,90 2,4 3,7 5,11l4 12c1,-1 4,-9 5,-11 1,-3 3,-6 4,-10 3,-7 6,-13 9,-21 12,-27 23,-55 34,-82 1,-1 18,-41 18,-42l-33 0c0,1 -1,4 -2,5l-15 39c-3,7 -5,14 -8,21 -1,3 -8,21 -9,22z"/>
   <path class="fil1" d="M284 151c-35,-47 -67,-92 -98,-135 -1,-2 -9,-13 -10,-13l-17 28 5 6c2,3 41,59 44,63l19 26c3,5 7,9 10,13 0,1 1,3 2,4 1,1 3,1 4,1 2,1 6,1 8,2l31 5c0,0 0,0 1,0l1 0z"/>
   <path class="fil0" d="M52 133c-3,-7 -6,-14 -9,-21 -3,-7 -6,-14 -9,-21 -11,0 -23,0 -34,0 0,2 2,6 3,7 12,30 23,58 37,91 1,3 3,7 4,11l5 11c1,-1 4,-8 5,-10 1,-3 3,-7 4,-10 3,-7 6,-14 9,-21 11,-28 23,-55 34,-83 1,-1 17,-40 18,-41l-33 0c0,1 -1,4 -2,5l-15 38c-3,8 -5,15 -8,22 -1,3 -8,21 -9,22z"/>
   <path class="fil2" d="M173 164c0,0 -1,-1 -3,-1 -3,0 -4,1 -4,1l13 36c0,0 1,0 4,0 3,0 4,0 4,0l13 -36c0,0 -1,-1 -4,-1 -2,0 -3,1 -3,1l-7 22c-2,4 -3,7 -3,7l0 0c0,0 -1,-3 -2,-7l-8 -22z"/>
   <path class="fil2" d="M234 184c0,0 1,-3 1,-7 0,-10 -6,-15 -14,-15 -10,0 -16,6 -16,19 0,13 5,20 16,20 8,0 12,-3 12,-3 0,-2 -1,-4 -3,-5 0,0 -3,2 -8,2 -6,0 -9,-3 -10,-11l22 0zm-7 -8c0,1 0,2 0,3l-15 0c1,-8 4,-11 9,-11 5,0 6,3 6,8z"/>
   <path class="fil2" d="M241 173c0,7 5,10 10,11 4,1 8,2 8,6 0,3 -2,5 -6,5 -5,0 -10,-2 -10,-2 -1,1 -2,3 -2,5 0,0 4,3 12,3 9,0 13,-4 13,-11 0,-7 -4,-9 -9,-11 -4,-1 -9,-2 -9,-6 0,-3 2,-5 7,-5 4,0 8,1 8,1 1,-1 2,-3 2,-5 0,0 -3,-2 -10,-2 -9,0 -14,5 -14,11z"/>
   <path class="fil2" d="M318 168l0 -4c0,0 -1,-1 -3,-1 -3,0 -4,1 -4,1l0 36c0,0 1,0 4,0 2,0 3,0 3,0l0 -26c2,-3 5,-5 7,-5 2,0 3,0 5,1 2,-1 3,-3 3,-6 -2,-1 -4,-2 -6,-2 -3,0 -6,2 -9,6l0 0z"/>
   <path class="fil2" d="M346 168l0 -4c0,0 -1,-1 -4,-1 -2,0 -3,1 -3,1l0 36c0,0 1,0 3,0 3,0 4,0 4,0l0 -26c2,-3 5,-5 7,-5 2,0 3,0 5,1 2,-1 3,-3 3,-6 -2,-1 -4,-2 -6,-2 -3,0 -6,2 -9,6l0 0z"/>
   <path class="fil2" d="M364 182c0,14 6,19 16,19 10,0 16,-5 16,-19 0,-14 -6,-20 -16,-20 -10,0 -16,6 -16,20zm24 0c0,11 -3,14 -8,14 -5,0 -9,-3 -9,-14 0,-11 4,-14 9,-14 5,0 8,3 8,14z"/>
   <path class="fil2" d="M434 200c2,0 3,0 5,0 1,0 2,0 4,0l10 -36c0,0 -1,-1 -3,-1 -2,0 -3,1 -3,1l-7 22c-1,3 -1,6 -1,7l-1 0c0,-1 0,-4 -1,-7l-6 -22c0,0 -1,-1 -4,-1 -2,0 -4,1 -4,1l-6 22c-1,3 -1,6 -2,7l0 0c0,-1 0,-4 -1,-7l-7 -22c0,0 -1,-1 -3,-1 -2,0 -4,1 -4,1l11 36c1,0 3,0 4,0 2,0 3,0 4,0l6 -19c1,-5 2,-8 2,-11l0 0c0,3 1,6 2,11l5 19z"/>
   <path class="fil2" d="M109 200c1,0 2,0 4,0 1,0 3,0 4,0l11 -36c0,0 -1,-1 -4,-1 -2,0 -3,1 -3,1l-6 22c-1,3 -2,6 -2,7l0 0c0,-1 -1,-4 -2,-7l-6 -22c0,0 -1,-1 -3,-1 -3,0 -4,1 -4,1l-7 22c-1,3 -1,6 -1,7l-1 0c0,-1 0,-4 -1,-7l-7 -22c0,0 0,-1 -3,-1 -2,0 -3,1 -3,1l10 36c1,0 3,0 4,0 2,0 3,0 4,0l6 -19c1,-5 2,-8 2,-11l0 0c0,3 1,6 2,11l6 19z"/>
   <g>
    <path class="fil2" d="M186 227c0,0 0,0 0,1 0,0 0,0 -1,0 0,0 0,0 0,0 0,0 0,0 0,0 -1,0 -1,0 -1,0 0,0 0,0 0,0 0,0 0,0 0,0 0,-1 0,-1 0,-1l0 -6c0,-1 0,-1 -1,-2 0,0 0,0 0,-1 0,0 0,0 -1,0 0,-1 0,-1 -1,-1 0,0 -1,1 -1,1 -1,0 -1,1 -2,2l0 7c0,0 0,0 0,1 0,0 0,0 0,0 0,0 0,0 0,0 -1,0 -1,0 -1,0 0,0 0,0 0,0 -1,0 -1,0 -1,0 0,0 0,0 0,0 0,-1 0,-1 0,-1l0 -16c0,0 0,0 0,0 0,0 0,-1 0,-1 0,0 0,0 1,0 0,0 0,0 0,0 0,0 0,0 1,0 0,0 0,0 0,0 0,0 0,1 0,1 0,0 0,0 0,0l0 6c1,0 1,-1 2,-1 1,0 1,0 2,0 0,0 1,0 2,0 0,0 1,1 1,1 0,0 0,1 1,1 0,1 0,2 0,3l0 6zm6 0c0,0 0,0 -1,1 0,0 0,0 0,0 0,0 0,0 0,0 0,0 0,0 -1,0 0,0 0,0 0,0 0,0 0,0 0,0 0,0 0,0 0,0 -1,-1 -1,-1 -1,-1l0 -11c0,0 0,0 1,0 0,0 0,0 0,0 0,0 0,0 0,0 0,0 0,0 0,0 1,0 1,0 1,0 0,0 0,0 0,0 0,0 0,0 0,0 1,0 1,0 1,0l0 11zm0 -15c0,1 0,1 -1,1 0,1 0,1 -1,1 0,0 0,0 -1,-1 0,0 0,0 0,-1 0,0 0,0 0,-1 1,0 1,0 1,0 1,0 1,0 1,0 1,1 1,1 1,1zm13 5c0,0 0,0 0,0 -1,0 -1,1 -1,1l-1 0c0,0 0,0 0,0 0,1 0,1 0,2 0,0 0,1 0,1 0,1 0,1 -1,2 0,0 -1,0 -1,0 -1,1 -1,1 -2,1 0,0 -1,0 -1,-1 -1,0 -1,0 -1,0 0,0 0,0 -1,1 0,0 0,0 0,0 0,0 0,1 1,1 0,0 0,0 1,0l3 0c0,0 1,0 1,1 1,0 1,0 1,0 1,0 1,1 1,1 0,0 1,1 1,1 0,1 -1,1 -1,2 0,0 0,1 -1,1 0,0 -1,1 -1,1 -1,0 -2,0 -3,0 -1,0 -2,0 -2,0 -1,0 -1,0 -2,-1 0,0 0,0 -1,-1 0,0 0,0 0,-1 0,0 0,0 0,-1 0,0 0,0 0,0 1,-1 1,-1 1,-1 0,0 0,0 1,-1 -1,0 -1,0 -1,0 0,-1 -1,-1 -1,-1 0,-1 1,-1 1,-2 0,0 0,-1 1,-1 -1,0 -1,-1 -1,-1 0,0 0,-1 0,-1 0,-1 0,-2 0,-2 0,-1 1,-1 1,-1 0,-1 1,-1 1,-1 1,0 1,0 2,0 0,0 1,0 1,0 0,0 1,0 1,0l3 0c0,0 0,0 1,0 0,0 0,0 0,1zm-4 3c0,-1 0,-2 0,-2 -1,-1 -1,-1 -2,-1 0,0 -1,0 -1,0 0,1 -1,1 -1,1 0,0 0,0 0,1 0,0 0,0 0,1 0,0 0,1 0,1 1,1 1,1 2,1 0,0 1,0 1,0 0,0 1,0 1,-1 0,0 0,0 0,0 0,-1 0,-1 0,-1zm1 8c0,0 0,0 0,-1 -1,0 -1,0 -2,0l-3 0c0,0 0,0 0,0 0,1 -1,1 -1,1 0,0 0,0 0,0 0,1 0,1 0,1 0,1 0,1 1,1 0,1 1,1 2,1 1,0 1,0 2,-1 0,0 1,0 1,0 0,0 0,0 0,-1 0,0 0,0 0,-1zm15 -1c0,0 0,0 0,1 0,0 0,0 0,0 0,0 0,0 -1,0 0,0 0,0 0,0 0,0 0,0 -1,0 0,0 0,0 0,0 0,0 0,0 0,0 0,-1 0,-1 0,-1l0 -6c0,-1 0,-1 0,-2 0,0 -1,0 -1,-1 0,0 0,0 0,0 -1,-1 -1,-1 -1,-1 -1,0 -2,1 -2,1 -1,0 -1,1 -2,2l0 7c0,0 0,0 0,1 0,0 0,0 0,0 0,0 0,0 0,0 0,0 0,0 -1,0 0,0 0,0 0,0 0,0 0,0 0,0 -1,0 -1,0 -1,0 0,-1 0,-1 0,-1l0 -16c0,0 0,0 0,0 0,0 0,-1 1,-1 0,0 0,0 0,0 0,0 0,0 0,0 1,0 1,0 1,0 0,0 0,0 0,0 0,0 0,1 0,1 0,0 0,0 0,0l0 6c1,0 2,-1 2,-1 1,0 1,0 2,0 1,0 1,0 2,0 0,0 1,1 1,1 0,0 1,1 1,1 0,1 0,2 0,3l0 6zm9 -6c0,1 0,1 0,1 0,0 -1,0 -1,0l-5 0c0,0 0,0 0,0 0,0 0,0 0,-1 0,0 0,0 0,0 0,0 0,0 0,0l5 0c0,0 0,0 0,0 1,0 1,0 1,0 0,0 0,0 0,0 0,0 0,0 0,0zm13 1c0,1 0,1 -1,2 0,1 0,2 0,2 -1,1 -1,1 -2,1 -1,1 -1,1 -2,1 0,0 -1,0 -1,0 0,0 -1,0 -1,0 0,-1 0,-1 -1,-1 0,0 0,-1 0,-1l0 6c0,0 0,0 0,0 -1,0 -1,0 -1,0 0,0 0,0 0,0 0,0 0,0 0,0 -1,0 -1,0 -1,0 0,0 0,0 0,0 0,0 0,0 0,0 0,0 0,0 0,0l0 -16c0,0 0,0 0,0 0,0 0,0 0,0 0,0 0,0 0,0 0,0 0,0 0,0 1,0 1,0 1,0 0,0 0,0 0,0 0,0 0,0 0,0 0,0 0,0 0,0l0 2c1,-1 1,-1 1,-1 1,0 1,-1 1,-1 1,0 1,0 1,0 1,0 1,0 1,0 1,0 2,0 2,0 1,0 1,1 2,1 0,1 0,2 1,2 0,1 0,2 0,3zm-2 0c0,-1 0,-1 0,-2 -1,0 -1,-1 -1,-1 0,-1 0,-1 -1,-1 0,-1 -1,-1 -1,-1 0,0 -1,0 -1,0 0,1 0,1 -1,1 0,0 0,0 -1,1 0,0 0,0 0,1l0 4c0,1 1,1 1,2 1,0 1,0 2,0 0,0 1,0 1,0 0,0 1,-1 1,-1 0,-1 0,-1 1,-2 0,0 0,-1 0,-1zm14 -1c0,1 0,1 0,1 0,0 0,0 0,0l-8 0c0,1 0,1 0,2 1,0 1,1 1,1 0,1 1,1 1,1 1,0 1,0 2,0 0,0 1,0 1,0 1,0 1,0 1,0 1,0 1,0 1,0 0,-1 1,-1 1,-1 0,0 0,0 0,0 0,0 0,1 0,1 0,0 0,0 0,0 0,0 0,0 0,0 0,0 0,0 0,0 0,1 0,1 0,1 0,0 0,0 0,0 0,0 0,0 0,0 0,0 0,0 -1,0 0,0 0,0 -1,1 0,0 0,0 -1,0 0,0 -1,0 -1,0 -1,0 -2,0 -3,0 0,-1 -1,-1 -1,-2 -1,0 -1,-1 -1,-2 -1,0 -1,-1 -1,-2 0,-1 0,-2 1,-3 0,-1 0,-1 1,-2 0,0 1,-1 1,-1 1,0 2,0 3,0 0,0 1,0 2,0 0,0 1,1 1,1 1,1 1,1 1,2 0,0 0,1 0,2l0 0zm-2 0c0,-1 0,-2 0,-3 -1,0 -2,-1 -3,-1 0,0 -1,0 -1,0 0,1 -1,1 -1,1 0,1 0,1 0,1 -1,1 -1,1 -1,2l6 0zm12 -4c0,0 0,0 0,0 0,0 0,1 0,1 0,0 0,0 0,0 0,0 0,0 0,0 0,0 0,0 0,0 -1,0 -1,0 -1,0 0,0 0,0 0,0 0,0 0,0 -1,0 0,0 0,0 0,0 0,0 -1,0 -1,0 0,0 0,1 -1,1 0,0 0,1 0,1l0 7c0,0 0,0 0,1 0,0 0,0 -1,0 0,0 0,0 0,0 0,0 0,0 0,0 -1,0 -1,0 -1,0 0,0 0,0 0,0 0,0 0,0 0,0 0,-1 0,-1 0,-1l0 -11c0,0 0,0 0,0 0,0 0,0 0,0 0,0 0,0 0,0 0,0 0,0 1,0 0,0 0,0 0,0 0,0 0,0 0,0 0,0 0,0 0,0 0,0 0,0 0,0l0 2c1,-1 1,-1 1,-1 1,-1 1,-1 1,-1 0,0 1,0 1,0 0,0 0,0 1,0 0,0 0,0 0,0 0,0 0,0 0,0 0,0 1,0 1,0 0,0 0,0 0,0 0,0 0,0 0,0 0,0 0,0 0,0 0,0 0,0 0,0 0,1 0,1 0,1zm9 -5c0,0 0,0 0,0 0,0 0,0 0,0 0,0 -1,0 -1,0 0,0 0,0 0,0 0,0 0,0 0,0 0,0 0,0 0,0 0,0 0,0 -1,0 0,0 0,0 0,0 -1,0 -1,0 -1,0 0,0 0,0 -1,1 0,0 0,0 0,0 0,1 0,1 0,2l0 1 3 0c0,0 0,0 0,0 0,0 0,0 0,0 0,0 0,0 0,0 0,0 0,1 0,1 0,0 0,0 0,0 0,0 0,1 0,1l-3 0 0 9c0,0 0,0 0,1 0,0 0,0 0,0 0,0 0,0 0,0 -1,0 -1,0 -1,0 0,0 0,0 0,0 -1,0 -1,0 -1,0 0,0 0,0 0,0 0,-1 0,-1 0,-1l0 -9 -2 0c0,0 0,-1 0,-1 0,0 0,0 0,0 0,0 0,-1 0,-1 0,0 0,0 0,0 0,0 0,0 0,0 0,0 0,0 0,0l2 0 0 -1c0,-1 0,-2 0,-2 0,-1 1,-1 1,-2 0,0 1,0 1,0 0,-1 1,-1 2,-1 0,0 0,0 0,0 1,0 1,0 1,1 0,0 0,0 0,0 0,0 0,0 1,0 0,0 0,0 0,0 0,0 0,0 0,1zm11 10c0,1 0,1 0,2 0,1 -1,2 -1,2 -1,1 -1,1 -2,1 -1,1 -2,1 -3,1 -1,0 -1,0 -2,0 -1,-1 -1,-1 -2,-2 0,0 -1,-1 -1,-2 0,0 0,-1 0,-2 0,-1 0,-2 0,-3 1,0 1,-1 1,-2 1,0 1,-1 2,-1 1,0 2,0 3,0 1,0 1,0 2,0 1,0 1,1 2,1 0,1 1,1 1,2 0,1 0,2 0,3zm-2 0c0,-1 0,-1 0,-2 0,0 0,-1 -1,-1 0,-1 0,-1 -1,-1 0,-1 -1,-1 -1,-1 -1,0 -2,0 -2,1 0,0 -1,0 -1,1 0,0 -1,0 -1,1 0,0 0,1 0,2 0,0 0,1 0,1 0,1 1,1 1,2 0,0 0,1 1,1 0,0 1,0 2,0 0,0 1,0 1,0 1,0 1,-1 1,-1 0,0 1,-1 1,-1 0,-1 0,-2 0,-2zm12 -5c0,0 0,0 0,0 0,0 0,1 0,1 0,0 0,0 0,0 0,0 -1,0 -1,0 0,0 0,0 0,0 0,0 0,0 0,0 0,0 0,0 -1,0 0,0 0,0 0,0 0,0 0,0 -1,0 0,0 0,0 0,0 -1,0 -1,1 -1,1 0,0 0,1 -1,1l0 7c0,0 0,0 0,1 0,0 0,0 0,0 0,0 0,0 0,0 0,0 -1,0 -1,0 0,0 0,0 0,0 0,0 -1,0 -1,0 0,0 0,0 0,0 0,-1 0,-1 0,-1l0 -11c0,0 0,0 0,0 0,0 0,0 0,0 0,0 1,0 1,0 0,0 0,0 0,0 0,0 0,0 1,0 0,0 0,0 0,0 0,0 0,0 0,0 0,0 0,0 0,0l0 2c0,-1 1,-1 1,-1 0,-1 0,-1 1,-1 0,0 0,0 0,0 1,0 1,0 1,0 0,0 0,0 0,0 1,0 1,0 1,0 0,0 0,0 0,0 0,0 0,0 1,0 0,0 0,0 0,0 0,0 0,0 0,0 0,0 0,0 0,0 0,1 0,1 0,1zm19 10c0,0 0,0 0,1 0,0 0,0 -1,0 0,0 0,0 0,0 0,0 0,0 0,0 -1,0 -1,0 -1,0 0,0 0,0 0,0 0,0 0,0 0,0 0,-1 0,-1 0,-1l0 -6c0,-1 0,-1 -1,-2 0,0 0,0 0,-1 0,0 0,0 -1,0 0,-1 0,-1 -1,-1 0,0 -1,1 -1,1 0,0 -1,1 -2,2l0 7c0,0 0,0 0,1 0,0 0,0 0,0 0,0 0,0 0,0 0,0 0,0 -1,0 0,0 0,0 0,0 0,0 0,0 0,0 -1,0 -1,0 -1,0 0,-1 0,-1 0,-1l0 -6c0,-1 0,-1 0,-2 0,0 0,0 0,-1 0,0 -1,0 -1,0 0,-1 -1,-1 -1,-1 0,0 -1,1 -1,1 -1,0 -1,1 -2,2l0 7c0,0 0,0 0,1 0,0 0,0 0,0 0,0 0,0 0,0 -1,0 -1,0 -1,0 0,0 0,0 0,0 -1,0 -1,0 -1,0 0,0 0,0 0,0 0,-1 0,-1 0,-1l0 -11c0,0 0,0 0,0 0,0 0,0 0,0 0,0 0,0 1,0 0,0 0,0 0,0 0,0 0,0 0,0 1,0 1,0 1,0 0,0 0,0 0,0 0,0 0,0 0,0l0 2c1,-1 1,-2 2,-2 0,0 1,0 2,0 0,0 0,0 1,0 0,0 1,0 1,0 0,0 0,1 1,1 0,0 0,0 0,1 0,-1 1,-1 1,-1 0,0 1,-1 1,-1 0,0 1,0 1,0 0,0 1,0 1,0 1,0 1,0 2,0 0,0 1,1 1,1 0,0 0,1 0,1 1,1 1,2 1,2l0 7z"/>
    <path class="fil2" d="M322 227c0,0 0,1 0,1 0,0 0,0 -1,0 0,0 0,0 0,0 0,0 0,0 -1,0 0,0 0,0 0,0 0,0 0,-1 0,-1l0 -1c0,1 -1,1 -2,1 0,1 -1,1 -1,1 -1,0 -2,0 -2,0 -1,0 -1,-1 -1,-1 -1,0 -1,-1 -1,-1 0,0 0,-1 0,-1 0,-1 0,-2 0,-2 0,-1 1,-1 1,-1 1,-1 1,-1 2,-1 1,0 1,0 2,0l2 0 0 -1c0,-1 0,-1 0,-1 0,-1 -1,-1 -1,-1 0,0 0,0 -1,-1 0,0 0,0 -1,0 0,0 -1,0 -1,0 -1,1 -1,1 -1,1 0,0 -1,0 -1,0 0,0 0,0 0,0 0,0 -1,0 -1,0 0,0 0,0 0,0 0,0 0,0 0,0 0,0 0,0 0,0 0,-1 0,-1 0,-1 0,0 0,0 0,0 1,0 1,0 1,-1 0,0 1,0 1,0 0,0 1,0 1,0 1,0 1,0 1,0 1,0 2,0 2,0 1,0 2,0 2,1 0,0 0,0 1,1 0,1 0,1 0,2l0 7zm-2 -5l-2 0c-1,0 -1,0 -1,0 -1,0 -1,1 -1,1 -1,0 -1,0 -1,0 0,1 0,1 0,1 0,1 0,1 0,2 1,0 1,0 2,0 0,0 1,0 1,0 1,0 1,-1 2,-1l0 -3zm15 5c0,0 0,0 0,1 0,0 0,0 0,0 0,0 0,0 0,0 0,0 -1,0 -1,0 0,0 0,0 0,0 0,0 -1,0 -1,0 0,0 0,0 0,0 0,-1 0,-1 0,-1l0 -6c0,-1 0,-1 0,-2 0,0 0,0 0,-1 -1,0 -1,0 -1,0 0,-1 -1,-1 -1,-1 -1,0 -1,1 -2,1 0,0 -1,1 -1,2l0 7c0,0 0,0 0,1 0,0 0,0 -1,0 0,0 0,0 0,0 0,0 0,0 0,0 -1,0 -1,0 -1,0 0,0 0,0 0,0 0,0 0,0 0,0 0,-1 0,-1 0,-1l0 -11c0,0 0,0 0,0 0,0 0,0 0,0 0,0 0,0 0,0 0,0 0,0 1,0 0,0 0,0 0,0 0,0 0,0 0,0 0,0 0,0 0,0 0,0 0,0 0,0l0 2c1,-1 2,-2 2,-2 1,0 2,0 2,0 1,0 2,0 2,0 1,0 1,1 1,1 1,0 1,1 1,1 0,1 0,2 0,3l0 6zm12 -1c0,0 0,0 0,0 0,0 0,0 0,0 0,0 0,0 0,0 0,1 0,1 0,1 0,0 -1,0 -1,0 0,0 0,0 -1,1 0,0 0,0 -1,0 0,0 0,0 -1,0 -1,0 -1,0 -2,0 -1,-1 -1,-1 -1,-2 -1,0 -1,-1 -1,-2 -1,0 -1,-1 -1,-2 0,-1 0,-2 1,-3 0,-1 0,-1 1,-2 0,0 1,-1 1,-1 1,0 2,0 2,0 1,0 1,0 1,0 1,0 1,0 1,0 1,0 1,0 1,0 0,1 1,1 1,1 0,0 0,0 0,0 0,0 0,0 0,0 0,0 0,0 0,0 0,1 0,1 0,1 0,0 0,0 0,0 0,1 0,1 0,1 0,0 -1,0 -1,-1 0,0 0,0 0,0 -1,0 -1,0 -1,0 -1,-1 -1,-1 -2,-1 -1,0 -1,1 -2,1 0,1 -1,2 -1,4 0,1 0,1 1,2 0,0 0,1 0,1 0,0 1,1 1,1 1,0 1,0 1,0 1,0 1,0 2,0 0,0 0,0 1,-1 0,0 0,0 0,0 0,0 1,0 1,0 0,0 0,0 0,0 0,0 0,0 0,0 0,0 0,0 0,0 0,0 0,0 0,1zm12 -5c0,1 0,1 0,1 0,0 0,0 0,0l-8 0c0,1 0,1 0,2 0,0 1,1 1,1 0,1 1,1 1,1 1,0 1,0 2,0 0,0 1,0 1,0 1,0 1,0 1,0 1,0 1,0 1,0 0,-1 0,-1 1,-1 0,0 0,0 0,0 0,0 0,1 0,1 0,0 0,0 0,0 0,0 0,0 0,0 0,0 0,0 0,0 0,1 0,1 0,1 0,0 0,0 0,0 0,0 0,0 0,0 0,0 -1,0 -1,0 0,0 0,0 -1,1 0,0 0,0 -1,0 0,0 -1,0 -1,0 -1,0 -2,0 -3,0 0,-1 -1,-1 -2,-2 0,0 0,-1 -1,-2 0,0 0,-1 0,-2 0,-1 0,-2 0,-3 1,-1 1,-1 1,-2 1,0 2,-1 2,-1 1,0 2,0 2,0 1,0 2,0 3,0 0,0 1,1 1,1 1,1 1,1 1,2 0,0 0,1 0,2l0 0zm-2 0c0,-1 0,-2 0,-3 -1,0 -2,-1 -3,-1 0,0 -1,0 -1,0 0,1 -1,1 -1,1 0,1 0,1 -1,1 0,1 0,1 0,2l6 0zm24 -7c0,0 0,0 0,0 0,0 -1,0 -1,0 0,1 0,1 0,1 0,0 0,0 0,0 0,0 0,0 0,-1 -1,0 -1,0 -1,0 -1,0 -1,0 -2,-1 0,0 -1,0 -2,0 0,0 -1,0 -2,1 -1,0 -1,0 -2,1 0,1 -1,1 -1,2 0,1 0,2 0,3 0,1 0,2 0,2 0,1 1,2 1,2 1,1 1,1 2,2 1,0 2,0 2,0 1,0 1,0 2,0 0,0 1,0 1,-1l0 -4 -3 0c0,0 -1,0 -1,-1 0,0 0,0 0,0 0,0 0,-1 0,-1 0,0 0,0 0,0 0,0 0,0 0,0 1,0 1,0 1,0l5 0c0,0 0,0 0,0 0,0 0,0 0,0 0,0 0,0 0,0 1,0 1,1 1,1l0 6c0,0 -1,0 -1,0 0,1 0,1 0,1 0,0 -1,0 -1,0 0,0 -1,1 -1,1 -1,0 -1,0 -1,0 -1,0 -1,0 -2,0 -1,0 -2,0 -3,-1 -1,0 -2,-1 -2,-1 -1,-1 -2,-2 -2,-3 0,-1 -1,-2 -1,-3 0,-2 1,-3 1,-4 0,-1 1,-2 2,-2 0,-1 1,-2 2,-2 1,0 2,-1 3,-1 1,0 2,0 2,1 1,0 1,0 2,0 0,0 0,0 1,0 0,1 0,1 0,1 0,0 0,0 0,0 1,0 1,1 1,1zm10 3c0,0 0,0 0,0 0,0 0,1 0,1 0,0 0,0 0,0 0,0 0,0 0,0 -1,0 -1,0 -1,0 0,0 0,0 0,0 0,0 0,0 0,0 -1,0 -1,0 -1,0 0,0 0,0 -1,0 0,0 0,0 0,0 0,0 -1,1 -1,1 0,0 0,1 -1,1l0 7c0,0 0,0 0,1 0,0 0,0 0,0 0,0 0,0 0,0 0,0 0,0 -1,0 0,0 0,0 0,0 0,0 0,0 0,0 -1,0 -1,0 -1,0 0,-1 0,-1 0,-1l0 -11c0,0 0,0 0,0 0,0 0,0 1,0 0,0 0,0 0,0 0,0 0,0 0,0 0,0 1,0 1,0 0,0 0,0 0,0 0,0 0,0 0,0 0,0 0,0 0,0l0 2c0,-1 1,-1 1,-1 0,-1 1,-1 1,-1 0,0 0,0 1,0 0,0 0,0 0,0 0,0 0,0 1,0 0,0 0,0 0,0 0,0 0,0 0,0 1,0 1,0 1,0 0,0 0,0 0,0 0,0 0,0 0,0 0,0 0,0 0,0 0,1 0,1 0,1zm12 5c0,1 0,1 0,2 0,1 -1,2 -1,2 -1,1 -1,1 -2,1 -1,1 -2,1 -3,1 0,0 -1,0 -2,0 -1,-1 -1,-1 -2,-2 0,0 0,-1 -1,-2 0,0 0,-1 0,-2 0,-1 0,-2 0,-3 1,0 1,-1 1,-2 1,0 2,-1 2,-1 1,0 2,0 3,0 1,0 1,0 2,0 1,0 1,1 2,1 0,1 1,1 1,2 0,1 0,2 0,3zm-2 0c0,-1 0,-1 0,-2 0,0 0,-1 -1,-1 0,-1 0,-1 -1,-1 0,-1 -1,-1 -1,-1 -1,0 -1,0 -2,1 0,0 -1,0 -1,1 0,0 -1,0 -1,1 0,0 0,1 0,2 0,0 0,1 0,1 0,1 1,1 1,2 0,0 0,1 1,1 0,0 1,0 2,0 0,0 1,0 1,0 1,0 1,-1 1,-1 1,0 1,-1 1,-1 0,-1 0,-2 0,-2zm15 5c0,0 0,0 0,1 0,0 0,0 0,0 0,0 -1,0 -1,0 0,0 0,0 0,0 0,0 0,0 -1,0 0,0 0,0 0,0 0,0 0,0 0,0 0,-1 0,-1 0,-1l0 -1c-1,1 -1,1 -2,1 -1,1 -1,1 -2,1 -1,0 -1,0 -2,0 0,-1 -1,-1 -1,-1 0,-1 0,-1 -1,-2 0,-1 0,-1 0,-2l0 -7c0,0 0,0 0,0 0,0 0,0 0,0 0,0 1,0 1,0 0,0 0,0 0,0 0,0 1,0 1,0 0,0 0,0 0,0 0,0 0,0 0,0 0,0 0,0 0,0l0 7c0,0 0,1 0,1 0,1 1,1 1,1 0,1 0,1 1,1 0,0 0,0 1,0 0,0 1,0 1,0 1,-1 1,-1 2,-2l0 -8c0,0 0,0 0,0 0,0 0,0 0,0 0,0 0,0 0,0 0,0 1,0 1,0 0,0 0,0 0,0 0,0 1,0 1,0 0,0 0,0 0,0 0,0 0,0 0,0l0 11zm13 0c0,0 0,0 0,1 0,0 0,0 0,0 0,0 0,0 0,0 0,0 -1,0 -1,0 0,0 0,0 0,0 0,0 -1,0 -1,0 0,0 0,0 0,0 0,-1 0,-1 0,-1l0 -6c0,-1 0,-1 0,-2 0,0 0,0 0,-1 -1,0 -1,0 -1,0 0,-1 -1,-1 -1,-1 -1,0 -1,1 -2,1 0,0 -1,1 -1,2l0 7c0,0 0,0 0,1 0,0 0,0 -1,0 0,0 0,0 0,0 0,0 0,0 0,0 -1,0 -1,0 -1,0 0,0 0,0 0,0 0,0 0,0 0,0 0,-1 0,-1 0,-1l0 -11c0,0 0,0 0,0 0,0 0,0 0,0 0,0 0,0 0,0 0,0 0,0 1,0 0,0 0,0 0,0 0,0 0,0 0,0 0,0 0,0 0,0 0,0 0,0 0,0l0 2c1,-1 2,-2 2,-2 1,0 2,0 2,0 1,0 2,0 2,0 1,0 1,1 1,1 1,0 1,1 1,1 0,1 0,2 0,3l0 6zm14 0c0,0 0,0 0,1 0,0 -1,0 -1,0 0,0 0,0 0,0 0,0 0,0 0,0 0,0 -1,0 -1,0 0,0 0,0 0,0 0,0 0,0 0,0 0,-1 0,-1 0,-1l0 -1c-1,1 -1,1 -2,1 -1,1 -1,1 -2,1 -1,0 -2,0 -2,-1 -1,0 -1,0 -2,-1 0,0 0,-1 0,-2 -1,-1 -1,-1 -1,-2 0,-1 0,-2 1,-3 0,0 0,-1 1,-2 0,0 0,-1 1,-1 1,0 1,0 2,0 1,0 1,0 2,0 0,0 1,1 2,1l0 -6c0,0 0,0 0,0 0,0 0,0 0,0 0,-1 0,-1 0,-1 0,0 0,0 1,0 0,0 0,0 0,0 0,0 0,0 0,1 0,0 1,0 1,0 0,0 0,0 0,0l0 16zm-2 -8c-1,0 -2,-1 -2,-1 -1,0 -1,-1 -2,-1 0,0 -1,0 -1,1 0,0 -1,0 -1,1 0,0 0,1 0,1 0,1 -1,1 -1,2 0,0 0,1 1,1 0,1 0,1 0,2 0,0 1,1 1,1 0,0 1,0 1,0 1,0 1,0 1,0 0,0 1,0 1,0 0,-1 0,-1 1,-1 0,0 0,-1 1,-1l0 -5z"/>
   </g>
   <path class="fil3" d="M291 163l-5 -7 0 0 -34 -5c-2,-1 -6,-1 -9,-2 0,0 -1,0 -2,0 1,1 2,2 3,3 1,1 2,3 2,4 1,1 3,1 4,1 3,0 6,1 9,1l30 5c1,0 1,0 1,0l1 0z"/>
   <path class="fil3" d="M293 161l-5 -7 0 0 4 -34c0,-2 1,-6 1,-8 0,-1 0,-2 0,-2 1,1 2,2 3,3 1,1 2,2 2,3 1,1 1,3 1,4 -1,3 -1,6 -1,9l-4 30c0,1 0,1 0,1l-1 1z"/>
   <path class="fil3" d="M289 109c0,0 0,-1 0,-1 -4,-5 -7,-9 -10,-13l-19 -27c-3,-4 -42,-60 -44,-64l-2 -3 3 -1 4 6c2,3 39,57 42,61l18 25c3,4 6,8 9,13 1,1 1,2 2,3 0,0 0,1 0,1l-3 0z"/>
   <path class="fil1" d="M135 164c0,6 7,9 12,9 5,0 7,-5 6,2 0,1 0,2 0,3 0,0 -2,0 -3,-1 -1,0 -3,0 -5,0 -4,0 -7,1 -10,3 -2,2 -3,5 -3,8 0,4 1,7 3,9 2,2 4,3 8,3 2,0 5,0 7,-1 2,-1 3,-3 4,-4 0,1 1,3 1,4 0,0 1,1 3,1 2,0 3,-1 3,-1 0,-4 0,-8 0,-12 0,-4 0,-8 0,-12 0,-4 -1,-8 -3,-10 -3,-3 -6,3 -11,3 -6,0 -6,-2 -12,-4zm18 19c0,0 0,1 0,2 0,3 0,5 -2,7 -1,2 -3,3 -6,3 -4,0 -6,-2 -6,-7 0,-2 1,-3 2,-4 1,-1 3,-2 5,-2 3,0 6,0 7,1 0,0 0,0 0,0z"/>
   <path class="fil1" d="M276 164c0,6 7,9 12,9 5,0 7,-5 7,2 -1,1 0,2 0,3 -1,0 -3,0 -4,-1 -1,0 -3,0 -5,0 -4,0 -7,1 -10,3 -2,2 -3,5 -3,8 0,4 1,7 3,9 2,2 4,3 8,3 2,0 5,0 7,-1 2,-1 3,-3 4,-4 0,1 1,3 1,4 0,0 1,1 3,1 2,0 3,-1 3,-1 0,-4 0,-8 0,-12 0,-4 0,-8 0,-12 0,-4 -1,-8 -3,-10 -3,-3 -6,3 -11,3 -6,0 -6,-2 -12,-4zm19 19c0,0 0,1 0,2 0,3 -1,5 -3,7 -1,2 -3,3 -6,3 -4,0 -6,-2 -6,-7 0,-2 1,-3 2,-4 1,-1 3,-2 5,-2 3,0 6,0 8,1 0,0 0,0 0,0z"/>
  </g>
 </g>
</svg>
