<?xml version="1.0" encoding="UTF-8"?>
<!DOCTYPE svg PUBLIC "-//W3C//DTD SVG 1.1//EN" "http://www.w3.org/Graphics/SVG/1.1/DTD/svg11.dtd">
<!-- Creator: CorelDRAW X7 -->
<svg xmlns="http://www.w3.org/2000/svg" xml:space="preserve" width="0.928992in" height="0.475929in" version="1.1" style="shape-rendering:geometricPrecision; text-rendering:geometricPrecision; image-rendering:optimizeQuality; fill-rule:evenodd; clip-rule:evenodd"
viewBox="0 0 327 167"
 xmlns:xlink="http://www.w3.org/1999/xlink">
 <defs>
  <style type="text/css">
   <![CDATA[
    .fil1 {fill:#A9ABAE}
    .fil0 {fill:#00AFEF}
    .fil3 {fill:#86B817}
    .fil2 {fill:#A9ABAE;fill-rule:nonzero}
   ]]>
  </style>
 </defs>
 <g id="Layer_x0020_1">
  <metadata id="CorelCorpID_0Corel-Layer"/>
  <g id="_903479792">
   <path class="fil0" d="M108 63c-2,-5 -4,-10 -6,-15 -2,-5 -5,-10 -7,-15 -7,0 -16,0 -24,0 0,1 1,4 2,5 8,21 17,41 26,65 1,3 3,5 4,8l3 8c1,0 3,-6 3,-7 1,-2 2,-5 3,-7 3,-6 4,-10 7,-15 8,-20 16,-40 25,-60 0,-1 12,-29 12,-30l-23 0c-1,1 -1,3 -2,4l-10 27c-3,6 -5,11 -7,16 0,2 -5,15 -6,16z"/>
   <path class="fil1" d="M204 109c-24,-34 -48,-67 -70,-98 -1,-1 -7,-9 -7,-9l-12 20 3 5c2,2 30,42 32,45l14 19c2,3 4,6 6,9 1,1 2,2 2,3 1,1 2,1 3,1 2,0 4,0 6,1l22 4c0,0 0,0 1,0l0 0z"/>
   <path class="fil0" d="M37 96c-2,-5 -4,-10 -6,-15 -2,-5 -4,-10 -6,-15 -8,0 -17,0 -25,0 0,1 2,4 2,5 9,21 17,41 27,65 1,3 2,5 3,8l3 8c1,0 3,-6 4,-7 1,-2 2,-5 3,-8 2,-5 4,-9 6,-15 8,-20 17,-39 25,-59 0,-1 12,-29 12,-30l-23 0c0,1 -1,3 -1,4l-11 27c-2,6 -4,11 -6,16 -1,2 -6,15 -7,16z"/>
   <path class="fil2" d="M125 118c0,0 -1,-1 -3,-1 -1,0 -2,1 -2,1l9 26c0,0 1,0 3,0 2,0 3,0 3,0l9 -26c0,0 -1,-1 -2,-1 -2,0 -3,1 -3,1l-5 16c-1,3 -2,5 -2,5l0 0c0,0 -1,-2 -2,-5l-5 -16z"/>
   <path class="fil2" d="M168 132c0,0 1,-2 1,-5 0,-7 -4,-10 -10,-10 -7,0 -11,4 -11,14 0,9 3,14 11,14 6,0 9,-2 9,-2 -1,-2 -1,-3 -2,-4 0,0 -2,1 -6,1 -4,0 -7,-1 -7,-8l15 0zm-4 -5c0,1 0,1 0,2l-11 0c0,-6 3,-8 6,-8 4,0 5,3 5,6z"/>
   <path class="fil2" d="M174 125c0,5 4,6 7,7 3,1 6,2 6,5 0,2 -2,3 -5,3 -4,0 -7,-1 -7,-1 -1,1 -1,2 -1,4 0,0 3,2 8,2 7,0 10,-3 10,-8 0,-5 -4,-7 -7,-8 -3,-1 -6,-2 -6,-4 0,-3 1,-4 5,-4 3,0 5,1 5,1 1,-1 2,-2 2,-4 0,0 -3,-1 -8,-1 -6,0 -9,3 -9,8z"/>
   <path class="fil2" d="M229 121l0 -3c0,0 -1,-1 -2,-1 -2,0 -3,1 -3,1l0 26c0,0 1,0 3,0 1,0 2,0 2,0l0 -19c1,-2 3,-4 5,-4 2,0 3,1 4,2 1,-2 2,-3 2,-5 -1,0 -3,-1 -5,-1 -2,0 -4,1 -6,4l0 0z"/>
   <path class="fil2" d="M249 121l0 -3c0,0 -1,-1 -2,-1 -2,0 -3,1 -3,1l0 26c0,0 1,0 3,0 1,0 2,0 2,0l0 -19c2,-2 4,-4 6,-4 1,0 2,1 3,2 1,-2 2,-3 2,-5 -1,0 -3,-1 -5,-1 -2,0 -4,1 -6,4l0 0z"/>
   <path class="fil2" d="M262 131c0,10 5,14 12,14 7,0 11,-4 11,-14 0,-10 -4,-14 -11,-14 -7,0 -12,4 -12,14zm18 0c0,8 -3,10 -6,10 -4,0 -6,-2 -6,-10 0,-8 2,-10 6,-10 3,0 6,2 6,10z"/>
   <path class="fil2" d="M313 144c1,0 2,0 3,0 1,0 2,0 3,0l8 -26c0,0 -1,-1 -3,-1 -1,0 -2,1 -2,1l-5 16c0,2 -1,4 -1,5l0 0c0,-1 -1,-3 -1,-5l-5 -16c0,0 -1,-1 -2,-1 -2,0 -3,1 -3,1l-5 16c0,2 -1,4 -1,5l0 0c0,-1 0,-3 -1,-5l-5 -16c0,0 0,-1 -2,-1 -2,0 -3,1 -3,1l8 26c1,0 2,0 3,0 1,0 2,0 3,0l4 -14c1,-3 1,-6 1,-7l1 0c0,1 0,4 1,7l4 14z"/>
   <path class="fil2" d="M78 144c1,0 2,0 3,0 1,0 2,0 3,0l8 -26c0,0 -1,-1 -2,-1 -2,0 -3,1 -3,1l-4 16c-1,2 -1,4 -2,5l0 0c0,-1 0,-3 -1,-5l-4 -16c0,0 -1,-1 -3,-1 -1,0 -3,1 -3,1l-4 16c-1,2 -1,4 -1,5l-1 0c0,-1 0,-3 -1,-5l-5 -16c0,0 0,-1 -2,-1 -1,0 -2,1 -2,1l7 26c1,0 2,0 3,0 2,0 2,0 3,0l4 -14c1,-3 2,-6 2,-7l0 0c0,1 0,4 1,7l4 14z"/>
   <g>
    <path class="fil2" d="M134 164c0,0 0,0 0,0 0,0 0,0 0,0 0,0 -1,0 -1,0 0,0 0,0 0,0 0,0 0,0 0,0 0,0 -1,0 -1,0 0,0 0,0 0,0 0,0 0,0 0,0l0 -5c0,0 0,-1 0,-1 0,0 0,-1 0,-1 0,0 0,0 -1,0 0,0 0,0 0,0 -1,0 -1,0 -2,0 0,0 0,1 -1,1l0 6c0,0 0,0 0,0 0,0 0,0 0,0 0,0 0,0 0,0 0,0 0,0 0,0 -1,0 -1,0 -1,0 0,0 0,0 0,0 0,0 0,0 0,0 0,0 0,0 0,0l0 -12c0,0 0,0 0,0 0,0 0,0 0,0 0,0 0,0 0,0 0,0 0,0 1,0 0,0 0,0 0,0 0,0 0,0 0,0 0,0 0,0 0,0 0,0 0,0 0,0l0 5c1,-1 1,-1 2,-1 0,-1 0,-1 1,-1 0,0 1,0 1,1 1,0 1,0 1,0 0,1 1,1 1,1 0,1 0,1 0,2l0 5zm4 0c0,0 0,0 0,0 0,0 0,0 0,0 0,0 0,0 0,0 -1,0 -1,0 -1,0 0,0 0,0 0,0 0,0 0,0 0,0 0,0 0,0 0,0 -1,0 -1,0 -1,0l0 -8c0,0 0,0 1,0 0,0 0,0 0,0 0,-1 0,-1 0,-1 0,0 0,0 0,0 0,0 0,0 1,0 0,0 0,0 0,1 0,0 0,0 0,0 0,0 0,0 0,0l0 8zm0 -11c0,0 0,1 0,1 0,0 0,0 -1,0 0,0 0,0 -1,0 0,0 0,-1 0,-1 0,0 0,-1 0,-1 1,0 1,0 1,0 1,0 1,0 1,0 0,0 0,1 0,1zm9 3c0,0 0,0 0,1 0,0 0,0 0,0l-1 0c0,0 0,0 0,0 0,1 1,1 1,1 0,1 -1,1 -1,1 0,1 0,1 0,1 -1,1 -1,1 -1,1 -1,0 -1,0 -2,0 0,0 0,0 -1,0 0,0 0,0 0,0 0,0 0,0 0,0 -1,0 -1,0 -1,0 0,1 1,1 1,1 0,0 0,0 0,0l3 0c0,0 0,0 1,1 0,0 0,0 1,0 0,0 0,0 0,1 0,0 0,0 0,1 0,0 0,0 0,1 0,0 0,0 -1,0 0,1 0,1 -1,1 0,0 -1,0 -2,0 0,0 -1,0 -1,0 -1,0 -1,0 -1,0 -1,-1 -1,-1 -1,-1 0,0 0,-1 0,-1 0,0 0,0 0,0 0,-1 0,-1 0,-1 0,0 0,0 0,0 1,-1 1,-1 1,-1 0,0 -1,0 -1,0 0,-1 0,-1 0,-1 0,-1 0,-1 0,-1 0,0 1,-1 1,-1 0,0 0,0 -1,-1 0,0 0,0 0,-1 0,0 0,-1 1,-1 0,0 0,-1 0,-1 0,0 1,0 1,0 1,-1 1,-1 1,-1 1,0 1,0 1,0 0,0 1,0 1,0l2 0c0,0 0,1 0,1 0,0 0,0 0,0zm-2 2c0,0 0,-1 0,-1 -1,0 -1,-1 -2,-1 0,0 0,1 0,1 -1,0 -1,0 -1,0 0,0 0,0 0,1 0,0 0,0 0,0 0,1 0,1 0,2 0,0 1,0 1,0 1,0 1,0 1,0 0,0 1,0 1,-1 0,0 0,0 0,0 0,0 0,-1 0,-1zm1 7c0,-1 0,-1 -1,-1 0,0 0,0 -1,-1l-2 0c0,1 0,1 0,1 0,0 0,0 -1,0 0,0 0,0 0,1 0,0 0,0 0,0 0,0 0,1 1,1 0,0 1,0 1,0 1,0 1,0 2,0 0,0 0,0 0,0 1,0 1,-1 1,-1 0,0 0,0 0,0zm10 -1c0,0 0,0 0,0 0,0 0,0 0,0 0,0 0,0 0,0 0,0 0,0 0,0 -1,0 -1,0 -1,0 0,0 0,0 0,0 0,0 0,0 0,0 0,0 0,0 0,0l0 -5c0,0 0,-1 0,-1 0,0 0,-1 -1,-1 0,0 0,0 0,0 0,0 -1,0 -1,0 0,0 -1,0 -1,0 0,0 -1,1 -1,1l0 6c0,0 0,0 0,0 0,0 0,0 0,0 0,0 0,0 -1,0 0,0 0,0 0,0 0,0 0,0 0,0 0,0 0,0 -1,0 0,0 0,0 0,0 0,0 0,0 0,0l0 -12c0,0 0,0 0,0 0,0 0,0 0,0 1,0 1,0 1,0 0,0 0,0 0,0 0,0 0,0 0,0 1,0 1,0 1,0 0,0 0,0 0,0 0,0 0,0 0,0l0 5c0,-1 1,-1 1,-1 1,-1 1,-1 1,-1 1,0 1,0 2,1 0,0 0,0 1,0 0,1 0,1 0,1 0,1 0,1 0,2l0 5zm7 -5c0,1 0,1 0,1 -1,0 -1,0 -1,0l-3 0c-1,0 -1,0 -1,0 0,0 0,0 0,-1 0,0 0,0 0,0 0,0 0,0 1,0l3 0c0,0 0,0 0,0 0,0 1,0 1,0 0,0 0,0 0,0 0,0 0,0 0,0zm9 1c0,0 0,1 0,2 0,0 -1,1 -1,1 0,0 -1,1 -1,1 0,0 -1,0 -1,0 -1,0 -1,0 -1,0 0,0 -1,0 -1,0 0,0 0,0 0,-1 0,0 -1,0 -1,0l0 4c0,0 0,0 0,0 0,0 0,0 0,0 0,0 0,0 0,0 0,0 -1,0 -1,0 0,0 0,0 0,0 0,0 0,0 0,0 0,0 0,0 0,0 0,0 0,0 0,0l0 -11c0,0 0,0 0,0 0,0 0,0 0,0 0,-1 0,-1 0,-1 0,0 0,0 0,0 0,0 0,0 1,0 0,0 0,0 0,0 0,1 0,1 0,1 0,0 0,0 0,0l0 1c0,0 0,-1 1,-1 0,0 0,0 0,0 1,0 1,-1 1,-1 0,0 1,0 1,0 0,0 1,0 1,1 1,0 1,0 1,1 1,0 1,0 1,1 0,0 0,1 0,2zm-2 0c0,-1 0,-1 0,-1 0,-1 0,-1 0,-1 0,-1 0,-1 -1,-1 0,0 0,0 -1,0 0,0 0,0 0,0 0,0 0,0 -1,0 0,0 0,0 0,0 0,1 -1,1 -1,1l0 3c1,1 1,1 1,2 1,0 1,0 1,0 1,0 1,0 1,0 1,-1 1,-1 1,-1 0,0 0,-1 0,-1 0,0 0,-1 0,-1zm11 -1c0,1 0,1 0,1 0,0 0,0 0,0l-6 0c0,0 0,1 0,1 0,1 1,1 1,1 0,0 0,1 1,1 0,0 0,0 1,0 0,0 1,0 1,0 0,0 0,0 1,0 0,0 0,0 0,-1 0,0 0,0 1,0 0,0 0,0 0,0 0,0 0,0 0,1 0,0 0,0 0,0 0,0 0,0 0,0 0,0 0,0 0,0 0,0 0,0 0,0 0,0 0,0 0,0 0,0 0,0 0,1 0,0 -1,0 -1,0 0,0 0,0 0,0 -1,0 -1,0 -1,0 -1,0 -1,0 -1,0 -1,0 -2,0 -2,0 -1,0 -1,-1 -1,-1 -1,0 -1,-1 -1,-1 0,-1 0,-1 0,-2 0,-1 0,-2 0,-2 0,-1 0,-1 1,-1 0,-1 0,-1 1,-1 0,-1 1,-1 2,-1 0,0 1,0 1,1 1,0 1,0 1,0 1,1 1,1 1,2 0,0 0,1 0,1l0 0zm-1 0c0,-1 -1,-1 -1,-2 0,0 -1,-1 -1,-1 -1,0 -1,1 -1,1 -1,0 -1,0 -1,0 0,0 0,1 -1,1 0,0 0,1 0,1l5 0zm8 -3c0,0 0,0 0,1 0,0 0,0 0,0 0,0 0,0 0,0 0,0 0,0 0,0 0,0 0,0 0,0 0,0 0,0 -1,0 0,0 0,0 0,0 0,0 0,0 0,0 0,0 0,0 -1,0 0,0 0,0 0,0 0,0 0,0 -1,1 0,0 0,0 0,0l0 6c0,0 0,0 0,0 0,0 0,0 0,0 0,0 0,0 -1,0 0,0 0,0 0,0 0,0 0,0 0,0 0,0 0,0 0,0 -1,0 -1,0 -1,0 0,0 0,0 0,0l0 -8c0,0 0,0 0,0 0,0 0,0 1,0 0,-1 0,-1 0,-1 0,0 0,0 0,0 0,0 0,0 0,0 0,0 1,0 1,1 0,0 0,0 0,0 0,0 0,0 0,0l0 1c0,0 0,-1 0,-1 1,0 1,0 1,0 0,0 0,-1 0,-1 1,0 1,0 1,0 0,0 0,0 0,0 0,0 0,0 1,0 0,0 0,0 0,0 0,0 0,1 0,1 0,0 0,0 0,0 0,0 0,0 0,0 0,0 0,0 0,0 0,0 0,0 0,0zm6 -4c0,1 0,1 0,1 0,0 0,0 0,0 0,0 0,0 0,0 0,0 0,0 0,0 0,0 0,0 0,0 0,0 0,0 0,0 0,0 -1,0 -1,0 0,0 0,0 0,0 0,0 -1,0 -1,0 0,0 0,0 0,0 0,0 0,0 0,1 0,0 0,0 0,1l0 0 1 0c1,0 1,1 1,1 0,0 0,0 0,0 0,0 0,0 0,0 0,0 0,0 0,0 0,0 0,0 0,1 0,0 0,0 -1,0l-1 0 0 7c0,0 0,0 0,0 0,0 0,0 0,0 -1,0 -1,0 -1,0 0,0 0,0 0,0 0,0 0,0 0,0 -1,0 -1,0 -1,0 0,0 0,0 0,0 0,0 0,0 0,0l0 -7 -1 0c0,0 0,0 0,0 0,-1 0,-1 0,-1 0,0 0,0 0,0 0,0 0,0 0,0 0,0 0,0 0,0 0,0 0,-1 0,-1l1 0 0 0c0,-1 0,-1 0,-2 0,0 1,-1 1,-1 0,0 0,0 1,0 0,0 0,-1 1,-1 0,0 0,0 0,1 1,0 1,0 1,0 0,0 0,0 0,0 0,0 0,0 0,0 0,0 0,0 0,0 0,0 0,0 0,0zm9 8c0,0 -1,1 -1,1 0,1 0,2 -1,2 0,0 0,1 -1,1 0,0 -1,0 -2,0 0,0 -1,0 -1,0 -1,0 -1,-1 -2,-1 0,0 0,-1 0,-1 0,-1 -1,-1 -1,-2 0,-1 1,-1 1,-2 0,-1 0,-1 0,-1 1,-1 1,-1 2,-1 0,-1 1,-1 2,-1 0,0 1,0 1,1 1,0 1,0 2,0 0,1 0,1 0,2 0,0 1,1 1,2zm-2 0c0,-1 0,-1 0,-1 0,-1 0,-1 -1,-2 0,0 0,0 0,0 -1,0 -1,0 -2,0 0,0 0,0 -1,0 0,0 0,0 0,0 -1,1 -1,1 -1,1 0,1 0,1 0,2 0,0 0,1 0,1 0,0 0,1 1,1 0,0 0,1 0,1 1,0 1,0 1,0 1,0 1,0 2,0 0,0 0,-1 0,-1 1,0 1,-1 1,-1 0,0 0,-1 0,-1zm8 -4c0,0 0,0 0,1 0,0 0,0 0,0 0,0 0,0 0,0 0,0 0,0 0,0 0,0 0,0 0,0 0,0 0,0 0,0 0,0 0,0 -1,0 0,0 0,0 0,0 0,0 0,0 0,0 0,0 -1,0 -1,0 0,0 0,0 0,1 0,0 -1,0 -1,0l0 6c0,0 0,0 0,0 0,0 0,0 0,0 0,0 0,0 0,0 0,0 0,0 -1,0 0,0 0,0 0,0 0,0 0,0 0,0 0,0 0,0 0,0 0,0 0,0 0,0l0 -8c0,0 0,0 0,0 0,0 0,0 0,0 0,-1 0,-1 0,-1 0,0 0,0 0,0 1,0 1,0 1,0 0,0 0,0 0,1 0,0 0,0 0,0 0,0 0,0 0,0l0 1c0,0 0,-1 1,-1 0,0 0,0 0,0 0,0 1,-1 1,-1 0,0 0,0 0,0 0,0 0,0 1,0 0,0 0,0 0,0 0,0 0,0 0,0 0,0 0,1 0,1 0,0 0,0 0,0 0,0 0,0 0,0 0,0 0,0 0,0 0,0 0,0 0,0zm14 8c0,0 0,0 0,0 0,0 0,0 0,0 0,0 0,0 0,0 0,0 -1,0 -1,0 0,0 0,0 0,0 0,0 0,0 0,0 0,0 0,0 0,0 0,0 0,0 0,0l0 -5c0,0 0,-1 -1,-1 0,0 0,-1 0,-1 0,0 0,0 0,0 0,0 -1,0 -1,0 0,0 -1,0 -1,0 0,0 -1,1 -1,1l0 6c0,0 0,0 0,0 0,0 0,0 0,0 0,0 0,0 -1,0 0,0 0,0 0,0 0,0 0,0 0,0 0,0 0,0 0,0 -1,0 -1,0 -1,0 0,0 0,0 0,0l0 -5c0,0 0,-1 0,-1 0,0 0,-1 0,-1 0,0 0,0 -1,0 0,0 0,0 0,0 -1,0 -1,0 -1,0 -1,0 -1,1 -1,1l0 6c0,0 0,0 0,0 0,0 -1,0 -1,0 0,0 0,0 0,0 0,0 0,0 0,0 0,0 0,0 -1,0 0,0 0,0 0,0 0,0 0,0 0,0 0,0 0,0 0,0l0 -8c0,0 0,0 0,0 0,0 0,0 0,0 0,-1 0,-1 0,-1 1,0 1,0 1,0 0,0 0,0 0,0 0,0 0,0 0,1 0,0 0,0 0,0 0,0 0,0 0,0l0 1c1,-1 1,-1 2,-1 0,-1 1,-1 1,-1 0,0 1,0 1,0 0,1 0,1 1,1 0,0 0,0 0,0 0,0 0,1 1,1 0,0 0,-1 0,-1 1,0 1,0 1,0 0,0 0,-1 1,-1 0,0 0,0 0,0 1,0 1,0 2,1 0,0 0,0 0,0 1,1 1,1 1,1 0,1 0,1 0,2l0 5z"/>
    <path class="fil2" d="M232 164c0,0 0,0 0,0 0,0 0,0 0,0 -1,0 -1,0 -1,0 0,0 0,0 0,0 0,0 0,0 0,0 0,0 0,0 0,0l0 -1c-1,0 -1,1 -2,1 0,0 -1,0 -1,0 0,0 -1,0 -1,0 0,0 -1,0 -1,0 0,-1 0,-1 -1,-1 0,-1 0,-1 0,-1 0,-1 0,-1 0,-1 1,-1 1,-1 1,-1 1,-1 1,-1 2,-1 0,0 1,0 1,0l1 0 0 -1c0,0 0,0 0,0 0,-1 0,-1 0,-1 0,0 0,0 -1,0 0,0 0,0 0,0 -1,0 -1,0 -1,0 -1,0 -1,0 -1,0 0,0 -1,0 -1,0 0,0 0,0 0,0 0,0 0,0 0,0 0,0 0,0 0,0 0,0 0,0 0,0 0,0 0,0 0,0 0,0 0,0 0,-1 0,0 0,0 0,0 0,0 0,0 0,0 0,0 1,0 1,0 0,0 0,-1 1,-1 0,0 0,0 1,0 0,0 1,0 1,1 1,0 1,0 1,0 0,0 1,1 1,1 0,0 0,1 0,1l0 6zm-2 -4l-1 0c0,0 -1,0 -1,0 0,0 0,0 -1,1 0,0 0,0 0,0 0,0 0,0 0,1 0,0 0,0 0,1 0,0 1,0 1,0 1,0 1,0 1,0 1,0 1,-1 1,-1l0 -2zm12 4c0,0 -1,0 -1,0 0,0 0,0 0,0 0,0 0,0 0,0 0,0 0,0 0,0 0,0 -1,0 -1,0 0,0 0,0 0,0 0,0 0,0 0,0 0,0 0,0 0,0l0 -5c0,0 0,-1 0,-1 0,0 0,-1 0,-1 -1,0 -1,0 -1,0 0,0 0,0 -1,0 0,0 0,0 -1,0 0,0 -1,1 -1,1l0 6c0,0 0,0 0,0 0,0 0,0 0,0 0,0 0,0 0,0 0,0 -1,0 -1,0 0,0 0,0 0,0 0,0 0,0 0,0 0,0 0,0 0,0 0,0 0,0 0,0l0 -8c0,0 0,0 0,0 0,0 0,0 0,0 0,-1 0,-1 0,-1 0,0 0,0 0,0 0,0 0,0 1,0 0,0 0,0 0,1 0,0 0,0 0,0 0,0 0,0 0,0l0 1c0,-1 1,-1 1,-1 1,-1 1,-1 2,-1 0,0 1,0 1,1 0,0 1,0 1,0 0,1 0,1 0,1 0,1 1,1 1,2l0 5zm8 -1c0,0 0,0 0,0 0,0 0,0 0,0 0,0 0,0 0,0 0,0 0,0 0,0 0,0 0,0 -1,1 0,0 0,0 0,0 0,0 -1,0 -1,0 0,0 0,0 -1,0 0,0 -1,0 -1,0 -1,0 -1,-1 -1,-1 -1,0 -1,-1 -1,-1 0,-1 0,-1 0,-2 0,-1 0,-2 0,-2 0,-1 0,-1 1,-2 0,0 0,0 1,0 0,-1 1,-1 1,-1 1,0 1,0 1,0 0,0 1,1 1,1 0,0 0,0 0,0 1,0 1,0 1,0 0,0 0,0 0,0 0,0 0,0 0,0 0,0 0,1 0,1 0,0 0,0 0,0 0,0 0,0 0,0 0,0 0,1 0,1 0,0 0,-1 -1,-1 0,0 0,0 0,0 0,0 0,0 -1,0 0,0 0,0 -1,0 0,0 -1,0 -1,0 -1,1 -1,2 -1,3 0,0 0,1 0,1 0,1 1,1 1,1 0,0 0,1 0,1 1,0 1,0 1,0 1,0 1,0 1,0 1,0 1,0 1,-1 0,0 0,0 0,0 1,0 1,0 1,0 0,0 0,0 0,0 0,0 0,0 0,0 0,0 0,0 0,0 0,0 0,0 0,1zm9 -4c0,1 0,1 0,1 0,0 -1,0 -1,0l-5 0c0,0 0,1 0,1 0,1 0,1 1,1 0,0 0,1 0,1 1,0 1,0 2,0 0,0 0,0 1,0 0,0 0,0 0,0 1,0 1,0 1,-1 0,0 0,0 0,0 0,0 0,0 0,0 0,0 0,0 0,1 0,0 0,0 0,0 0,0 0,0 0,0 0,0 0,0 0,0 0,0 0,0 0,0 0,0 0,0 0,0 0,0 0,0 0,1 0,0 0,0 0,0 0,0 0,0 -1,0 0,0 0,0 0,0 -1,0 -1,0 -2,0 0,0 -1,0 -1,0 -1,0 -1,-1 -2,-1 0,0 0,-1 0,-1 0,-1 -1,-1 -1,-2 0,-1 1,-2 1,-2 0,-1 0,-1 0,-1 1,-1 1,-1 2,-1 0,-1 1,-1 1,-1 1,0 1,0 2,1 0,0 1,0 1,0 0,1 1,1 1,2 0,0 0,1 0,1l0 0zm-2 0c0,-1 0,-1 0,-2 -1,0 -1,-1 -2,-1 0,0 0,1 -1,1 0,0 0,0 0,0 -1,0 -1,1 -1,1 0,0 0,1 0,1l4 0zm17 -5c0,0 0,0 0,0 0,0 0,0 0,1 0,0 0,0 0,0 0,0 0,0 0,0 0,0 0,0 -1,-1 0,0 0,0 0,0 0,0 -1,0 -1,0 -1,0 -1,0 -2,0 0,0 -1,0 -1,0 -1,0 -1,0 -2,1 0,0 0,1 0,1 -1,1 -1,2 -1,2 0,1 0,2 1,2 0,1 0,1 0,2 1,0 1,0 2,1 0,0 1,0 1,0 1,0 1,0 2,0 0,0 0,-1 1,-1l0 -3 -3 0c0,0 0,0 0,0 0,0 0,0 0,-1 0,0 0,0 0,0 0,0 0,0 0,0 0,0 0,0 0,0 0,0 0,0 0,0l4 0c0,0 0,0 0,0 0,0 0,0 0,0 0,0 0,0 0,0 0,0 0,0 0,0l0 5c0,0 0,0 0,0 0,0 0,0 0,0 0,1 -1,1 -1,1 0,0 -1,0 -1,0 0,0 0,0 -1,0 0,0 0,0 -1,0 -1,0 -1,0 -2,0 -1,-1 -1,-1 -2,-1 0,-1 -1,-2 -1,-2 0,-1 0,-2 0,-3 0,-1 0,-1 0,-2 0,-1 1,-2 1,-2 1,-1 1,-1 2,-1 1,-1 2,-1 2,-1 1,0 1,0 2,0 0,0 0,1 1,1 0,0 0,0 0,0 1,0 1,0 1,0 0,0 0,0 0,1 0,0 0,0 0,0zm8 2c0,0 0,0 0,1 0,0 0,0 0,0 0,0 -1,0 -1,0 0,0 0,0 0,0 0,0 0,0 0,0 0,0 0,0 0,0 0,0 0,0 0,0 0,0 -1,0 -1,0 0,0 0,0 0,0 0,0 0,0 -1,0 0,0 0,0 0,1 0,0 0,0 -1,0l0 6c0,0 0,0 0,0 0,0 0,0 0,0 0,0 0,0 0,0 0,0 0,0 0,0 -1,0 -1,0 -1,0 0,0 0,0 0,0 0,0 0,0 0,0 0,0 0,0 0,0l0 -8c0,0 0,0 0,0 0,0 0,0 0,0 0,-1 0,-1 0,-1 0,0 0,0 1,0 0,0 0,0 0,0 0,0 0,0 0,1 0,0 0,0 0,0 0,0 0,0 0,0l0 1c0,0 1,-1 1,-1 0,0 0,0 0,0 1,0 1,-1 1,-1 0,0 0,0 0,0 0,0 1,0 1,0 0,0 0,0 0,0 0,0 0,0 0,0 0,0 0,1 0,1 0,0 1,0 1,0 0,0 0,0 0,0 0,0 0,0 0,0 0,0 0,0 0,0zm8 4c0,0 0,1 0,1 0,1 0,2 -1,2 0,0 0,1 -1,1 0,0 -1,0 -2,0 0,0 -1,0 -1,0 -1,0 -1,-1 -2,-1 0,0 0,-1 0,-1 -1,-1 -1,-1 -1,-2 0,-1 0,-1 1,-2 0,-1 0,-1 0,-1 1,-1 1,-1 2,-1 0,-1 1,-1 1,-1 1,0 2,0 2,1 1,0 1,0 1,0 1,1 1,1 1,2 0,0 0,1 0,2zm-1 0c0,-1 0,-1 0,-1 0,-1 0,-1 -1,-2 0,0 0,0 0,0 -1,0 -1,0 -2,0 0,0 0,0 -1,0 0,0 0,0 0,0 -1,1 -1,1 -1,1 0,1 0,1 0,2 0,0 0,1 0,1 0,0 0,1 0,1 1,0 1,1 1,1 1,0 1,0 1,0 1,0 1,0 2,0 0,0 0,-1 0,-1 1,0 1,-1 1,-1 0,0 0,-1 0,-1zm11 4c0,0 0,0 0,0 -1,0 -1,0 -1,0 0,0 0,0 0,0 0,0 0,0 0,0 0,0 0,0 0,0 -1,0 -1,0 -1,0 0,0 0,0 0,0 0,0 0,0 0,0l0 -1c0,0 -1,1 -1,1 -1,0 -1,0 -2,0 0,0 -1,0 -1,0 0,0 -1,-1 -1,-1 0,0 0,0 0,-1 0,0 0,-1 0,-1l0 -5c0,0 0,0 0,0 0,0 0,0 0,0 0,-1 0,-1 0,-1 0,0 0,0 0,0 0,0 1,0 1,0 0,0 0,0 0,1 0,0 0,0 0,0 0,0 0,0 0,0l0 4c0,1 0,1 0,2 0,0 0,0 0,0 1,0 1,1 1,1 0,0 0,0 1,0 0,0 1,0 1,0 0,-1 1,-1 1,-2l0 -5c0,0 0,0 0,0 0,0 0,0 0,0 0,-1 0,-1 0,-1 1,0 1,0 1,0 0,0 0,0 0,0 0,0 0,0 0,1 0,0 0,0 0,0 1,0 1,0 1,0l0 8zm9 0c0,0 0,0 0,0 0,0 0,0 0,0 0,0 0,0 0,0 0,0 0,0 -1,0 0,0 0,0 0,0 0,0 0,0 0,0 0,0 0,0 0,0 0,0 0,0 0,0l0 -5c0,0 0,-1 0,-1 0,0 -1,-1 -1,-1 0,0 0,0 0,0 0,0 -1,0 -1,0 0,0 -1,0 -1,0 0,0 -1,1 -1,1l0 6c0,0 0,0 0,0 0,0 0,0 0,0 0,0 -1,0 -1,0 0,0 0,0 0,0 0,0 0,0 0,0 0,0 -1,0 -1,0 0,0 0,0 0,0 0,0 0,0 0,0l0 -8c0,0 0,0 0,0 0,0 0,0 0,0 0,-1 1,-1 1,-1 0,0 0,0 0,0 0,0 0,0 0,0 0,0 0,0 0,1 1,0 1,0 1,0 0,0 0,0 0,0l0 1c0,-1 1,-1 1,-1 0,-1 1,-1 1,-1 1,0 1,0 2,1 0,0 0,0 1,0 0,1 0,1 0,1 0,1 0,1 0,2l0 5zm10 0c0,0 0,0 0,0 0,0 0,0 0,0 0,0 0,0 -1,0 0,0 0,0 0,0 0,0 0,0 0,0 0,0 0,0 0,0 0,0 0,0 0,0 0,0 0,0 0,0l0 -1c-1,0 -1,1 -2,1 0,0 -1,0 -1,0 -1,0 -1,0 -2,0 0,0 -1,-1 -1,-1 0,0 0,-1 0,-1 -1,-1 -1,-2 -1,-2 0,-1 0,-1 1,-2 0,-1 0,-1 0,-1 1,-1 1,-1 1,-1 1,-1 1,-1 2,-1 0,0 1,0 1,1 1,0 1,0 1,1l0 -5c0,0 0,0 0,0 0,0 0,0 0,0 1,0 1,0 1,0 0,0 0,0 0,0 0,0 0,0 0,0 1,0 1,0 1,0 0,0 0,0 0,0 0,0 0,0 0,0l0 12zm-2 -6c0,0 0,-1 -1,-1 0,0 -1,0 -1,0 0,0 -1,0 -1,0 0,0 0,0 -1,1 0,0 0,0 0,1 0,0 0,0 0,1 0,0 0,0 0,1 0,0 0,1 0,1 1,0 1,0 1,1 0,0 1,0 1,0 0,0 0,0 1,0 0,0 0,0 0,0 0,-1 0,-1 1,-1 0,0 0,0 0,-1l0 -3z"/>
   </g>
   <path class="fil3" d="M210 118l-4 -6 0 0 -24 -3c-2,-1 -5,-1 -7,-1 0,-1 -1,-1 -1,-1 1,1 1,2 2,3 0,1 1,1 2,2 0,1 1,1 2,1 2,0 4,1 6,1l22 3c1,1 1,1 1,1l1 0z"/>
   <path class="fil3" d="M211 116l-4 -5 0 0 3 -24c1,-2 1,-5 1,-7 0,0 0,-1 0,-1 1,1 1,2 2,2 1,1 1,2 2,3 1,1 0,2 0,3 0,2 0,4 -1,6l-2 22c0,0 0,0 -1,1l0 0z"/>
   <path class="fil3" d="M209 79c-1,-1 -1,-1 -1,-1 -2,-4 -5,-7 -7,-10l-14 -19c-2,-3 -30,-43 -31,-46l-2 -2 2 -1 3 4c2,3 28,41 30,44l13 18c2,3 5,6 7,9 0,1 1,2 1,3 1,0 1,0 1,1l-2 0z"/>
   <path class="fil1" d="M97 118c0,4 5,7 9,7 4,0 5,-4 5,1 0,1 0,1 0,2 -1,0 -2,0 -3,0 -1,0 -2,0 -3,0 -3,0 -6,0 -8,2 -1,1 -2,3 -2,6 0,3 1,5 2,6 1,2 3,2 6,2 2,0 3,0 5,-1 1,0 2,-1 3,-3 0,1 0,2 1,3 0,0 0,1 2,1 1,0 2,-1 2,-1 0,-2 0,-5 0,-8 0,-3 0,-6 0,-9 0,-3 -1,-5 -2,-7 -2,-2 -5,2 -8,2 -4,0 -4,-1 -9,-3zm14 14c0,0 0,1 0,1 0,2 -1,4 -2,5 -1,2 -2,2 -4,2 -3,0 -5,-1 -5,-4 0,-2 1,-3 2,-4 0,0 2,-1 3,-1 2,0 4,0 6,1 0,0 0,0 0,0z"/>
   <path class="fil1" d="M199 118c0,4 5,7 8,7 4,0 5,-4 5,1 0,1 0,1 0,2 -1,0 -1,0 -2,0 -1,0 -3,0 -4,0 -3,0 -5,0 -7,2 -2,1 -2,3 -2,6 0,3 0,5 2,6 1,2 3,2 5,2 2,0 4,0 5,-1 2,0 3,-1 3,-3 1,1 1,2 1,3 0,0 1,1 2,1 2,0 2,-1 2,-1 0,-2 0,-5 0,-8 0,-3 0,-6 0,-9 0,-3 0,-5 -2,-7 -2,-2 -4,2 -8,2 -4,0 -4,-1 -8,-3zm13 14c0,0 0,1 0,1 0,2 0,4 -1,5 -1,2 -3,2 -5,2 -3,0 -4,-1 -4,-4 0,-2 0,-3 1,-4 1,0 2,-1 4,-1 2,0 4,0 5,1 0,0 0,0 0,0z"/>
  </g>
 </g>
</svg>
